<?xml version="1.0" encoding="UTF-8"?>
<!DOCTYPE svg PUBLIC "-//W3C//DTD SVG 1.1//EN" "http://www.w3.org/Graphics/SVG/1.1/DTD/svg11.dtd">
<svg xmlns="http://www.w3.org/2000/svg" version="1.1" width="345px" height="146px" style="shape-rendering:geometricPrecision; text-rendering:geometricPrecision; image-rendering:optimizeQuality; fill-rule:evenodd; clip-rule:evenodd" xmlns:xlink="http://www.w3.org/1999/xlink">
<g><path style="opacity:1" fill="#ff6710" d="M -0.5,-0.5 C 13.8333,-0.5 28.1667,-0.5 42.5,-0.5C 42.1667,0.166667 41.8333,0.833333 41.5,1.5C 41.5,2.16667 41.1667,2.5 40.5,2.5C 40.19,1.26166 39.69,1.26166 39,2.5C 35.9148,7.67202 32.5814,12.672 29,17.5C 28.51,18.7932 28.3433,20.1266 28.5,21.5C 19.1918,36.1294 9.52515,50.4627 -0.5,64.5C -0.5,42.8333 -0.5,21.1667 -0.5,-0.5 Z"/></g>
<g><path style="opacity:1" fill="#ff6407" d="M 43.5,-0.5 C 61.1667,-0.5 78.8333,-0.5 96.5,-0.5C 96.5,0.166667 96.5,0.833333 96.5,1.5C 95.8826,1.38929 95.3826,1.05596 95,0.5C 94.5,48.8322 94.3333,97.1655 94.5,145.5C 77.5,145.5 60.5,145.5 43.5,145.5C 43.5,96.8333 43.5,48.1667 43.5,-0.5 Z"/></g>
<g><path style="opacity:1" fill="#ff660e" d="M 96.5,-0.5 C 124.167,-0.5 151.833,-0.5 179.5,-0.5C 182.767,5.03525 185.767,10.7019 188.5,16.5C 197.055,32.6065 205.888,48.6065 215,64.5C 216.009,66.0249 216.509,67.6916 216.5,69.5C 203.354,95.1251 189.688,120.458 175.5,145.5C 175.167,145.5 174.833,145.5 174.5,145.5C 148.234,97.9663 122.234,50.2997 96.5,2.5C 96.5,2.16667 96.5,1.83333 96.5,1.5C 96.5,0.833333 96.5,0.166667 96.5,-0.5 Z"/></g>
<g><path style="opacity:1" fill="#b94006" d="M 198.5,-0.5 C 217.5,-0.5 236.5,-0.5 255.5,-0.5C 243.004,23.1638 230.004,46.4971 216.5,69.5C 216.509,67.6916 216.009,66.0249 215,64.5C 205.888,48.6065 197.055,32.6065 188.5,16.5C 189.376,16.6309 190.043,16.2975 190.5,15.5C 193.63,10.3781 196.297,5.04474 198.5,-0.5 Z"/></g>
<g><path style="opacity:0.888" fill="#ff783c" d="M 42.5,-0.5 C 42.8333,-0.5 43.1667,-0.5 43.5,-0.5C 43.5,48.1667 43.5,96.8333 43.5,145.5C 43.1667,145.5 42.8333,145.5 42.5,145.5C 42.8322,97.3304 42.4988,49.3304 41.5,1.5C 41.8333,0.833333 42.1667,0.166667 42.5,-0.5 Z"/></g>
<g><path style="opacity:0.102" fill="#ffe7dd" d="M 96.5,1.5 C 96.5,1.83333 96.5,2.16667 96.5,2.5C 95.5012,49.9971 95.1679,97.6637 95.5,145.5C 95.1667,145.5 94.8333,145.5 94.5,145.5C 94.3333,97.1655 94.5,48.8322 95,0.5C 95.3826,1.05596 95.8826,1.38929 96.5,1.5 Z"/></g>
<g><path style="opacity:1" fill="#ff660d" d="M 263.5,-0.5 C 263.833,-0.5 264.167,-0.5 264.5,-0.5C 290.675,47.8573 317.342,95.8573 344.5,143.5C 344.5,144.167 344.5,144.833 344.5,145.5C 316.167,145.5 287.833,145.5 259.5,145.5C 256.233,139.965 253.233,134.298 250.5,128.5C 241.945,112.394 233.112,96.3935 224,80.5C 222.872,78.6547 222.372,76.6547 222.5,74.5C 235.913,49.3398 249.579,24.3398 263.5,-0.5 Z"/></g>
<g><path style="opacity:1" fill="#ff8a50" d="M 40.5,2.5 C 37.2467,9.34795 33.2467,15.6813 28.5,21.5C 28.3433,20.1266 28.51,18.7932 29,17.5C 32.5814,12.672 35.9148,7.67202 39,2.5C 39.69,1.26166 40.19,1.26166 40.5,2.5 Z"/></g>
<g><path style="opacity:1" fill="#b93f05" d="M 222.5,74.5 C 222.372,76.6547 222.872,78.6547 224,80.5C 233.112,96.3935 241.945,112.394 250.5,128.5C 249.624,128.369 248.957,128.702 248.5,129.5C 245.37,134.622 242.703,139.955 240.5,145.5C 221.5,145.5 202.5,145.5 183.5,145.5C 196.25,121.665 209.25,97.9984 222.5,74.5 Z"/></g>
</svg>
